<?xml version="1.0" encoding="UTF-8" standalone="no"?>
<svg
   xmlns:dc="http://purl.org/dc/elements/1.1/"
   xmlns:cc="http://creativecommons.org/ns#"
   xmlns:rdf="http://www.w3.org/1999/02/22-rdf-syntax-ns#"
   xmlns:svg="http://www.w3.org/2000/svg"
   xmlns="http://www.w3.org/2000/svg"
   version="1.1"
   id="svg4150"
   viewBox="0 0 64.905917 64.905917"
   height="18.317892mm"
   width="18.317892mm">
  <defs
     id="defs4152" />
  <metadata
     id="metadata4155">
    <rdf:RDF>
      <cc:Work
         rdf:about="">
        <dc:format>image/svg+xml</dc:format>
        <dc:type
           rdf:resource="http://purl.org/dc/dcmitype/StillImage" />
        <dc:title></dc:title>
      </cc:Work>
    </rdf:RDF>
  </metadata>
  <g
     transform="translate(540.56636,-336.54704)"
     id="layer1">
    <g
       id="g4706">
      <circle
         style="opacity:0.997;fill:#ffffff;fill-opacity:1;stroke:none;stroke-width:5;stroke-linecap:butt;stroke-linejoin:miter;stroke-miterlimit:4;stroke-dasharray:none;stroke-dashoffset:0;stroke-opacity:1"
         id="path4704"
         cx="-508.1134"
         cy="369"
         r="32.452957" />
      <path
         id="path3369"
         d="m -507.79164,348.40569 c -10.61218,-0.0248 -15.69811,0.11888 -16.74088,0.47306 -2.16058,0.73385 -4.64406,3.2529 -5.34713,5.42334 -0.35277,1.08906 -0.50063,6.233 -0.48203,16.74762 0.0243,13.72558 0.0997,15.31633 0.78917,16.64224 0.45217,0.8696 1.09147,1.69577 1.84068,2.41013 l 6.37171,-6.25065 8.598,-0.009 10.09789,-0.0494 10.09789,-0.0515 c 1.96697,-0.66597 4.44842,-2.52775 5.94574,-5.84484 0.75099,-1.9401 0.83395,-21.32707 0.1009,-23.52288 -0.69736,-2.08889 -2.44689,-4.10885 -4.43912,-5.12295 -1.47417,-0.75044 -2.71315,-0.81228 -16.83281,-0.84522 z m 8.53523,8.84686 c 2.44454,0.0156 4.09536,0.0509 4.15888,0.11433 0.0863,0.0862 0.15474,4.06741 0.15245,8.84462 l -0.005,8.68544 -8.92533,0.0157 -8.92534,0.0157 -8.64284,8.65181 c -0.2901,-0.33026 -0.11284,-25.74391 0.1816,-26.03838 0.19308,-0.19306 14.67141,-0.33615 22.00506,-0.28922 z"
         style="fill:#00aad4" />
    </g>
  </g>
</svg>
